<?xml version="1.0" standalone="no"?>
<!DOCTYPE svg PUBLIC "-//W3C//DTD SVG 20010904//EN"
 "http://www.w3.org/TR/2001/REC-SVG-20010904/DTD/svg10.dtd">
<svg version="1.0" xmlns="http://www.w3.org/2000/svg"
 width="500.000000pt" height="500.000000pt" viewBox="0 0 500.000000 500.000000"
 preserveAspectRatio="xMidYMid meet">

<g transform="translate(0.000000,500.000000) scale(0.100000,-0.100000)"
fill="#000000" stroke="none">
<path d="M3645 3160 c-3 -6 1 -7 9 -4 18 7 21 14 7 14 -6 0 -13 -4 -16 -10z"/>
<path d="M2318 3103 c12 -2 30 -2 40 0 9 3 -1 5 -23 4 -22 0 -30 -2 -17 -4z"/>
<path d="M3725 2980 c-13 -6 -15 -9 -5 -9 8 0 22 4 30 9 18 12 2 12 -25 0z"/>
<path d="M1198 2813 c7 -3 16 -2 19 1 4 3 -2 6 -13 5 -11 0 -14 -3 -6 -6z"/>
<path d="M3768 2813 c7 -3 16 -2 19 1 4 3 -2 6 -13 5 -11 0 -14 -3 -6 -6z"/>
<path d="M1170 2720 c0 -5 9 -10 19 -10 11 0 23 5 26 10 4 6 -5 10 -19 10 -14
0 -26 -4 -26 -10z"/>
<path d="M3808 2723 c6 -2 18 -2 25 0 6 3 1 5 -13 5 -14 0 -19 -2 -12 -5z"/>
<path d="M1261 2704 c0 -11 3 -14 6 -6 3 7 2 16 -1 19 -3 4 -6 -2 -5 -13z"/>
<path d="M3742 2660 c0 -14 2 -19 5 -12 2 6 2 18 0 25 -3 6 -5 1 -5 -13z"/>
<path d="M1253 2600 c0 -30 2 -43 4 -27 2 15 2 39 0 55 -2 15 -4 2 -4 -28z"/>
<path d="M1160 2630 c0 -5 11 -10 25 -10 14 0 25 5 25 10 0 6 -11 10 -25 10
-14 0 -25 -4 -25 -10z"/>
<path d="M3813 2633 c9 -2 23 -2 30 0 6 3 -1 5 -18 5 -16 0 -22 -2 -12 -5z"/>
<path d="M3750 2533 c0 -462 -305 -929 -736 -1128 -186 -86 -357 -120 -573
-113 -80 2 -128 1 -106 -3 22 -4 63 -8 92 -8 28 -1 55 -5 58 -11 3 -5 1 -10
-4 -10 -14 0 -14 -67 0 -75 15 -10 19 -3 22 43 1 32 6 42 19 42 21 0 38 -29
38 -65 0 -20 4 -26 18 -23 12 2 19 16 22 43 6 50 28 53 44 5 8 -24 17 -35 31
-35 17 0 19 6 17 43 -5 56 19 57 41 1 12 -30 21 -40 34 -37 14 2 19 14 21 51
4 56 20 58 37 6 11 -30 16 -34 46 -33 19 0 40 -7 47 -15 9 -10 11 -11 6 -2 -4
9 -3 12 4 7 6 -4 14 -22 18 -41 5 -26 10 -32 22 -27 14 5 15 3 4 -10 -21 -26
11 -29 74 -8 199 69 420 222 578 400 63 71 106 128 89 117 -6 -4 -13 -4 -16 0
-2 5 -2 2 0 -5 1 -7 -2 -10 -8 -7 -5 4 -7 15 -4 25 3 10 1 21 -5 25 -6 4 -9
13 -6 21 3 8 -1 17 -10 21 -11 4 -14 16 -10 50 3 24 9 50 15 57 8 9 2 17 -24
29 -37 18 -49 44 -15 33 11 -3 28 -9 38 -12 13 -4 22 2 30 20 10 24 9 27 -18
41 -52 27 -35 44 21 21 11 -5 22 2 33 19 17 26 17 26 -13 38 -40 15 -42 41 -3
32 20 -4 33 -1 45 13 16 17 15 19 -19 35 -38 19 -37 42 1 33 15 -4 30 0 40 11
16 16 16 17 -1 30 -10 7 -24 13 -31 13 -7 0 -13 7 -13 15 0 9 9 15 25 15 14 0
25 4 25 9 0 5 7 17 16 25 14 15 13 16 -10 16 -29 0 -59 27 -52 46 8 22 20 274
12 274 -3 0 -6 -26 -6 -57z m-136 -728 c11 -8 17 -17 14 -21 -8 -8 -48 14 -48
26 0 14 12 12 34 -5z m-34 -77 c0 -12 -6 -9 -26 13 -19 22 -19 22 4 8 12 -8
22 -17 22 -21z m-75 -48 c10 -11 16 -20 13 -20 -3 0 -13 9 -23 20 -10 11 -16
20 -13 20 3 0 13 -9 23 -20z m-55 -75 c7 -9 8 -15 2 -15 -5 0 -12 7 -16 15 -3
8 -4 15 -2 15 2 0 9 -7 16 -15z m-444 -300 c4 -20 3 -27 -3 -20 -6 6 -14 24
-17 40 -5 20 -4 27 3 20 5 -5 13 -23 17 -40z m-88 -17 c9 -25 9 -34 0 -39 -18
-11 -25 -3 -30 36 -5 44 13 46 30 3z"/>
<path d="M1160 2540 c0 -5 9 -10 19 -10 11 0 23 5 26 10 4 6 -5 10 -19 10 -14
0 -26 -4 -26 -10z"/>
<path d="M3808 2543 c7 -3 16 -2 19 1 4 3 -2 6 -13 5 -11 0 -14 -3 -6 -6z"/>
<path d="M1253 2455 c0 -27 2 -38 4 -22 2 15 2 37 0 50 -2 12 -4 0 -4 -28z"/>
<path d="M1160 2450 c0 -5 9 -10 19 -10 11 0 23 5 26 10 4 6 -5 10 -19 10 -14
0 -26 -4 -26 -10z"/>
<path d="M3813 2443 c9 -2 25 -2 35 0 9 3 1 5 -18 5 -19 0 -27 -2 -17 -5z"/>
<path d="M1262 2370 c0 -14 2 -19 5 -12 2 6 2 18 0 25 -3 6 -5 1 -5 -13z"/>
<path d="M1185 2360 c-19 -8 -19 -9 3 -9 12 -1 22 4 22 9 0 6 -1 10 -2 9 -2 0
-12 -4 -23 -9z"/>
<path d="M3803 2353 c9 -2 25 -2 35 0 9 3 1 5 -18 5 -19 0 -27 -2 -17 -5z"/>
<path d="M1201 2271 c-7 -5 -9 -11 -4 -14 6 -4 19 0 29 8 15 11 16 14 4 15 -8
0 -21 -4 -29 -9z"/>
<path d="M1221 2181 c-7 -5 -9 -11 -4 -14 4 -3 17 1 28 9 21 16 0 20 -24 5z"/>
<path d="M1260 2090 c-8 -5 -12 -11 -10 -14 3 -2 14 2 24 10 22 15 10 19 -14
4z"/>
<path d="M1285 1999 c-11 -17 -2 -18 19 -3 17 12 17 14 4 14 -9 0 -20 -5 -23
-11z"/>
<path d="M1330 1920 c-8 -5 -12 -12 -9 -15 4 -3 12 1 19 10 14 17 11 19 -10 5z"/>
<path d="M2879 1883 l-34 -38 38 34 c20 19 37 36 37 38 0 8 -8 0 -41 -34z"/>
<path d="M1375 1839 c-4 -6 -5 -12 -2 -15 2 -3 7 2 10 11 7 17 1 20 -8 4z"/>
<path d="M2819 1833 c-13 -16 -12 -17 4 -4 16 13 21 21 13 21 -2 0 -10 -8 -17
-17z"/>
<path d="M2730 1780 c-9 -6 -10 -10 -3 -10 6 0 15 5 18 10 8 12 4 12 -15 0z"/>
<path d="M1430 1765 c-14 -16 -3 -20 19 -6 8 5 9 11 3 15 -5 3 -15 -1 -22 -9z"/>
<path d="M1495 1700 c-10 -11 -16 -22 -13 -25 3 -3 13 4 23 15 10 11 16 22 13
25 -3 3 -13 -4 -23 -15z"/>
<path d="M1555 1640 c-10 -11 -16 -23 -13 -26 7 -6 38 24 38 37 0 13 -5 11
-25 -11z"/>
<path d="M1616 1581 c-11 -12 -16 -24 -12 -28 9 -9 39 22 34 37 -2 7 -10 4
-22 -9z"/>
<path d="M1670 1505 c-8 -9 -8 -15 -2 -15 12 0 26 19 19 26 -2 2 -10 -2 -17
-11z"/>
<path d="M1762 1483 c-18 -7 -34 -41 -22 -48 5 -3 16 8 25 25 8 16 14 30 13
29 -2 0 -9 -3 -16 -6z"/>
<path d="M1820 1419 c-6 -11 -9 -25 -7 -32 2 -7 11 3 21 21 9 17 12 32 7 32
-6 0 -15 -9 -21 -21z"/>
<path d="M1891 1374 c-12 -27 -7 -45 8 -28 14 14 23 54 13 54 -5 0 -14 -12
-21 -26z"/>
<path d="M1977 1353 c-2 -10 -8 -26 -12 -35 -4 -11 -3 -18 4 -18 16 0 34 51
23 62 -6 6 -11 2 -15 -9z"/>
<path d="M2051 1299 c-13 -38 -13 -39 -3 -39 9 0 32 44 32 60 0 22 -19 8 -29
-21z"/>
<path d="M2258 1303 c6 -2 18 -2 25 0 6 3 1 5 -13 5 -14 0 -19 -2 -12 -5z"/>
<path d="M2132 1270 c-6 -17 -7 -32 -2 -35 10 -6 30 26 30 49 0 27 -17 18 -28
-14z"/>
<path d="M2220 1268 c0 -7 -3 -23 -6 -35 -5 -17 -2 -23 10 -23 9 0 16 8 16 19
0 11 3 26 6 35 4 11 1 16 -10 16 -9 0 -16 -6 -16 -12z"/>
<path d="M2306 1238 c-11 -42 -7 -55 9 -34 16 22 20 56 6 56 -5 0 -11 -10 -15
-22z"/>
<path d="M2390 1220 c0 -43 14 -54 24 -17 10 37 7 57 -9 57 -11 0 -15 -11 -15
-40z"/>
</g>
</svg>
